<?xml version="1.0" encoding="iso-8859-1"?>
<!-- Generator: Adobe Illustrator 19.0.0, SVG Export Plug-In . SVG Version: 6.00 Build 0)  -->
<svg version="1.1" id="Capa_1" xmlns="http://www.w3.org/2000/svg" xmlns:xlink="http://www.w3.org/1999/xlink" x="0px" y="0px"
	 viewBox="0 0 160.943 160.943" style="enable-background:new 0 0 160.943 160.943;" xml:space="preserve">
<g>
	<path style="fill:#010002;" d="M89.671,117.876c-0.988,0-1.96-0.386-2.688-1.114L53.38,83.163
		c-0.713-0.713-1.114-1.678-1.114-2.688c0-1.01,0.401-1.975,1.114-2.688L86.983,44.18c1.092-1.092,2.725-1.403,4.143-0.824
		c1.418,0.587,2.346,1.975,2.346,3.512v67.206c0,1.537-0.924,2.926-2.346,3.512C90.655,117.78,90.161,117.876,89.671,117.876z
		 M61.444,80.475l24.425,24.422V56.046L61.444,80.475z"/>
	<path style="fill:#010002;" d="M80.471,160.943C36.098,160.943,0,124.849,0,80.475S36.098,0,80.471,0s80.471,36.102,80.471,80.475
		S124.845,160.943,80.471,160.943z M80.471,7.603c-40.178,0-72.868,32.693-72.868,72.872s32.69,72.864,72.868,72.864
		s72.868-32.686,72.868-72.864S120.65,7.603,80.471,7.603z"/>
</g>
<g>
</g>
<g>
</g>
<g>
</g>
<g>
</g>
<g>
</g>
<g>
</g>
<g>
</g>
<g>
</g>
<g>
</g>
<g>
</g>
<g>
</g>
<g>
</g>
<g>
</g>
<g>
</g>
<g>
</g>
</svg>
